<?xml version="1.0" standalone="no"?><!DOCTYPE svg PUBLIC "-//W3C//DTD SVG 1.1//EN" "http://www.w3.org/Graphics/SVG/1.1/DTD/svg11.dtd"><svg t="1543316777181" class="icon" style="" viewBox="0 0 1024 1024" version="1.1" xmlns="http://www.w3.org/2000/svg" p-id="2891" xmlns:xlink="http://www.w3.org/1999/xlink" width="128" height="128"><defs><style type="text/css"></style></defs><path d="M491.52 76.8h37.888v111.616l53.76 66.56 74.24 91.648h-296.96l74.24-91.648 56.32-69.632V76.8h0.512zM289.792 886.272h59.392V382.464h323.072v504.32h57.856V486.4H870.4v399.872h93.184V957.44H83.456V353.792l206.336 118.272v414.208z m231.936-143.36V798.72h44.544v-55.808h-44.544z m-409.6-84.992v33.792h27.136v-33.792h-27.136z m130.048 59.392v33.792h27.136v-33.792h-27.136z m0-119.808v33.792h27.136v-33.792h-27.136z m0-59.392v33.792h27.136v-33.792h-27.136z m-43.008 119.808v33.792h27.136v-33.792h-27.136z m0-119.808v33.792h27.136v-33.792h-27.136z m-44.544 119.808v33.792h27.136v-33.792h-27.136z m0 59.392v33.792h27.136v-33.792h-27.136z m0-119.808v33.792h27.136v-33.792h-27.136z m-42.496-59.392v33.792h27.136v-33.792h-27.136z m642.048 130.048v41.984h33.792v-41.984h-33.792z m0 73.216v41.984h33.792v-41.984h-33.792z m0-222.208v41.984h33.792v-41.984h-33.792z m52.736 73.216v41.984h33.28v-41.984h-33.28z m0-73.216v41.984h33.28v-41.984h-33.28z m-421.376 223.744V798.72H430.08v-55.808h-44.544z m0-198.656v55.808H430.08v-55.808h-44.544z m203.264 0v55.808h44.544v-55.808H588.8z m-67.072 0v55.808h44.544v-55.808h-44.544z m-67.072 0v55.808h44.544v-55.808h-44.544zM385.536 446.464v55.808H430.08V446.464h-44.544z m203.264 0v55.808h44.544V446.464H588.8z m-67.072 0v55.808h44.544V446.464h-44.544zM385.536 645.12v55.808H430.08V645.12h-44.544z m203.264 0v55.808h44.544V645.12H588.8z" fill="#BFCBD8" p-id="2892"></path></svg>