<?xml version="1.0" standalone="no"?><!DOCTYPE svg PUBLIC "-//W3C//DTD SVG 1.1//EN" "http://www.w3.org/Graphics/SVG/1.1/DTD/svg11.dtd"><svg t="1543220565789" class="icon" style="" viewBox="0 0 1024 1024" version="1.1" xmlns="http://www.w3.org/2000/svg" p-id="2341" xmlns:xlink="http://www.w3.org/1999/xlink" width="128" height="128"><defs><style type="text/css"></style></defs><path d="M908 745.6h-44.6V276c0-11-9-20-20-20H563.3c-11 0-20 9-20 20v469.7h-64V118.2c0-11-9-20-20-20h-280c-11 0-20 9-20 20v627.5H118c-11 0-20 9-20 20v46.1c0 11 9 20 20 20h790c11 0 20-9 20-20v-46.1c0-11.1-9-20.1-20-20.1zM608.7 372.2c0-11 9-20 20-20h150.8c11 0 20 9 20 20v24.2c0 11-9 20-20 20H628.7c-11 0-20-9-20-20v-24.2z m0 127.8c0-11 9-20 20-20h150.8c11 0 20 9 20 20v24.2c0 11-9 20-20 20H628.7c-11 0-20-9-20-20V500zM224.6 211.8c0-11 9-20 20-20h150.8c11 0 20 9 20 20V236c0 11-9 20-20 20H244.6c-11 0-20-9-20-20v-24.2z m0 127.8c0-11 9-20 20-20h150.8c11 0 20 9 20 20v24.2c0 11-9 20-20 20H244.6c-11 0-20-9-20-20v-24.2z m0 128.6c0-11 9-20 20-20h150.8c11 0 20 9 20 20v24.2c0 11-9 20-20 20H244.6c-11 0-20-9-20-20v-24.2z" p-id="2342"></path></svg>