<?xml version="1.0" standalone="no"?><!DOCTYPE svg PUBLIC "-//W3C//DTD SVG 1.1//EN" "http://www.w3.org/Graphics/SVG/1.1/DTD/svg11.dtd"><svg t="1557309293832" class="icon" style="" viewBox="0 0 1024 1024" version="1.1" xmlns="http://www.w3.org/2000/svg" p-id="5135" xmlns:xlink="http://www.w3.org/1999/xlink" width="128" height="128"><defs><style type="text/css"></style></defs><path d="M868.286736 272.568956L560.310066 100.220508a87.26397 87.26397 0 0 0-84.57874 0L167.790781 272.568956c-26.081656 14.600188-42.29539 41.807714-42.295391 71.026152v344.714958c0 29.224459 16.213735 56.425964 42.295391 71.026152l307.940545 172.342427a86.758231 86.758231 0 0 0 42.271308 10.933585c14.642333 0 29.278645-3.642521 42.307432-10.933585l307.958608-172.342427c26.081656-14.61223 42.271308-41.807714 42.271307-71.026152V343.595108c0.006021-29.212418-16.17159-56.425964-42.253245-71.026152z m-0.565946 415.729068c0 14.401505-7.995484 27.85174-20.885795 35.034431L538.912512 895.686924a42.98777 42.98777 0 0 1-41.753528 0l-307.940546-172.348448c-12.872248-7.200753-20.867733-20.638946-20.867732-35.034431V343.595108c0-14.419567 7.995484-27.821637 20.867732-35.040451l307.934525-172.348448a42.740922 42.740922 0 0 1 20.885795-5.406585 42.746943 42.746943 0 0 1 20.849671 5.406585l307.934525 172.348448c12.878269 7.170649 20.885795 20.614864 20.885795 35.02841v344.714957h0.012041z" p-id="5136"></path><path d="M763.038946 346.55127L506.039511 491.902916 249.015992 346.55127c-10.229163-5.755786-23.34826-2.444403-29.308748 7.477705-5.972531 9.910066-2.51063 22.619755 7.706491 28.399623L484.605833 527.864534v293.328316c0 11.451364 9.590969 20.765381 21.439699 20.765381 11.818627 0 21.415616-9.289934 21.415616-20.765381V527.876576l257.186077-145.429916c10.229163-5.79793 13.685042-18.489558 7.712512-28.405644-5.96651-9.940169-19.073565-13.245532-29.320791-7.489746z" p-id="5137"></path></svg>