<?xml version="1.0" standalone="no"?><!DOCTYPE svg PUBLIC "-//W3C//DTD SVG 1.1//EN" "http://www.w3.org/Graphics/SVG/1.1/DTD/svg11.dtd"><svg t="1557309486913" class="icon" style="" viewBox="0 0 1024 1024" version="1.1" xmlns="http://www.w3.org/2000/svg" p-id="9337" xmlns:xlink="http://www.w3.org/1999/xlink" width="128" height="128"><defs><style type="text/css"></style></defs><path d="M372.106 273.178c0-85.962-72.072-155.712-161.082-155.712C122.132 117.532 50 187.216 50 273.178a152.8 152.8 0 0 0 44.906 107.868 398 398 0 0 0-11.52 95.556c0 148.036 80.634 277.934 201.738 350.714l32.218-127.858c-65.79-53.346-107.68-133.31-107.68-222.8a276.384 276.384 0 0 1 4.072-47.714c87.776-1.486 158.37-70.616 158.37-155.77z m138.17-86.954A306.62 306.62 0 0 1 662.8 226.4a149.832 149.832 0 0 0-10.842 56.382c0 86.022 72.072 155.704 160.962 155.704S974 368.732 974 282.772s-72.2-155.71-161.084-155.71a165.466 165.466 0 0 0-58.952 10.768 439.918 439.918 0 0 0-416.106-38.74l73.61 103.166a309.762 309.762 0 0 1 98.8-16.03zM810.4 489.656c-4.8 105.83-68.312 196.988-159.79 243.836-26.6-50.438-80.88-84.968-143.468-84.968-89 0-161.082 69.744-161.082 155.704S418.122 960 507.132 960c66.714 0 124.128-39.3 148.4-95.244 164.226-57.49 281.51-209.6 281.51-388.094 0-9.16-0.37-18.2-0.982-27.166zM372.106 273.178c0-85.962-72.072-155.712-161.082-155.712C122.132 117.532 50 187.216 50 273.178a152.8 152.8 0 0 0 44.906 107.868 398 398 0 0 0-11.52 95.556c0 148.036 80.634 277.934 201.738 350.714l32.218-127.858c-65.79-53.346-107.68-133.31-107.68-222.8a276.384 276.384 0 0 1 4.072-47.714c87.776-1.486 158.37-70.616 158.37-155.77z m138.17-86.954A306.62 306.62 0 0 1 662.8 226.4a149.832 149.832 0 0 0-10.842 56.382c0 86.022 72.072 155.704 160.962 155.704S974 368.732 974 282.772s-72.2-155.71-161.084-155.71a165.466 165.466 0 0 0-58.952 10.768 439.918 439.918 0 0 0-416.106-38.74l73.61 103.166a309.762 309.762 0 0 1 98.8-16.03zM810.4 489.656c-4.8 105.83-68.312 196.988-159.79 243.836-26.6-50.438-80.88-84.968-143.468-84.968-89 0-161.082 69.744-161.082 155.704S418.122 960 507.132 960c66.714 0 124.128-39.3 148.4-95.244 164.226-57.49 281.51-209.6 281.51-388.094 0-9.16-0.37-18.2-0.982-27.166zM372.106 273.178c0-85.962-72.072-155.712-161.082-155.712C122.132 117.532 50 187.216 50 273.178a152.8 152.8 0 0 0 44.906 107.868 398 398 0 0 0-11.52 95.556c0 148.036 80.634 277.934 201.738 350.714l32.218-127.858c-65.79-53.346-107.68-133.31-107.68-222.8a276.384 276.384 0 0 1 4.072-47.714c87.776-1.486 158.37-70.616 158.37-155.77z m138.17-86.954A306.62 306.62 0 0 1 662.8 226.4a149.832 149.832 0 0 0-10.842 56.382c0 86.022 72.072 155.704 160.962 155.704S974 368.732 974 282.772s-72.2-155.71-161.084-155.71a165.466 165.466 0 0 0-58.952 10.768 439.918 439.918 0 0 0-416.106-38.74l73.61 103.166a309.762 309.762 0 0 1 98.8-16.03zM810.4 489.656c-4.8 105.83-68.312 196.988-159.79 243.836-26.6-50.438-80.88-84.968-143.468-84.968-89 0-161.082 69.744-161.082 155.704S418.122 960 507.132 960c66.714 0 124.128-39.3 148.4-95.244 164.226-57.49 281.51-209.6 281.51-388.094 0-9.16-0.37-18.2-0.982-27.166z m0 0" p-id="9338"></path></svg>