<?xml version="1.0" standalone="no"?><!DOCTYPE svg PUBLIC "-//W3C//DTD SVG 1.1//EN" "http://www.w3.org/Graphics/SVG/1.1/DTD/svg11.dtd"><svg t="1546645091658" class="icon" style="" viewBox="0 0 1024 1024" version="1.1" xmlns="http://www.w3.org/2000/svg" p-id="2045" xmlns:xlink="http://www.w3.org/1999/xlink" width="128" height="128"><defs><style type="text/css"></style></defs><path d="M822.857143 201.142857h-73.142857a18.285714 18.285714 0 1 1 0-36.571428H841.142857a18.285714 18.285714 0 0 1 18.285714 18.285714v694.857143a18.285714 18.285714 0 0 1-18.285714 18.285714H182.857143a18.285714 18.285714 0 0 1-18.285714-18.285714V182.857143a18.285714 18.285714 0 0 1 18.285714-18.285714h91.428571a18.285714 18.285714 0 0 1 0 36.571428h-73.142857v658.285714h621.714286v-658.285714zM365.714286 128h292.571428a18.285714 18.285714 0 0 1 18.285715 18.285714v109.714286a18.285714 18.285714 0 0 1-18.285715 18.285714h-292.571428a18.285714 18.285714 0 0 1-18.285715-18.285714V146.285714a18.285714 18.285714 0 0 1 18.285715-18.285714z m18.285714 36.571429v73.142857h256v-73.142857h-256z m-18.285714 365.714285a18.285714 18.285714 0 1 1 0-36.571428h292.571428a18.285714 18.285714 0 1 1 0 36.571428h-292.571428z m0 146.285715a18.285714 18.285714 0 1 1 0-36.571429h292.571428a18.285714 18.285714 0 1 1 0 36.571429h-292.571428z" p-id="2046" fill="#ffffff"></path></svg>