<?xml version="1.0" standalone="no"?><!DOCTYPE svg PUBLIC "-//W3C//DTD SVG 1.1//EN" "http://www.w3.org/Graphics/SVG/1.1/DTD/svg11.dtd"><svg t="1557309179145" class="icon" style="" viewBox="0 0 1024 1024" version="1.1" xmlns="http://www.w3.org/2000/svg" p-id="1996" xmlns:xlink="http://www.w3.org/1999/xlink" width="128" height="128"><defs><style type="text/css"></style></defs><path d="M927.392 437.184c0 59.136-46.528 107.04-103.936 107.04s-103.936-47.936-103.936-107.04c0 59.136-46.528 107.04-103.936 107.04s-103.936-47.936-103.936-107.04c0 59.136-46.528 107.04-103.936 107.04s-103.936-47.936-103.936-107.04c0 59.136-46.528 107.04-103.936 107.04s-103.936-47.936-103.936-107.04l63.968-191.808h703.584l63.968 191.808z m-134.336-256.448H230.208c-21.184 0-38.368-14.464-38.368-32.32s17.184-32.352 38.368-32.352h562.848c21.184 0 38.368 14.496 38.368 32.352s-17.184 32.32-38.368 32.32zM255.776 568.736v194.016h511.68v-194.016c7.616 16.768 22.816 31.456 32 32.352 18.56 1.728 23.744-15.008 31.968-32.352v258.688c0 35.296-25.472 64.672-63.968 64.672H255.776c-29.504 0-63.968-25.312-63.968-64.672v-258.688c4.448 16.768 9.12 32.352 31.968 32.352 18.88 0 29.76-21.408 31.968-32.352z" fill="" p-id="1997"></path></svg>