<?xml version="1.0" standalone="no"?><!DOCTYPE svg PUBLIC "-//W3C//DTD SVG 1.1//EN" "http://www.w3.org/Graphics/SVG/1.1/DTD/svg11.dtd"><svg t="1540970691715" class="icon" style="" viewBox="0 0 1024 1024" version="1.1" xmlns="http://www.w3.org/2000/svg" p-id="5093" xmlns:xlink="http://www.w3.org/1999/xlink" width="128" height="128"><defs><style type="text/css"></style></defs><path d="M512 768.911032c-142.120996 0-255.088968-112.967972-255.088968-255.088968s112.967972-255.088968 255.088968-255.088968 255.088968 112.967972 255.088968 255.088968S654.120996 768.911032 512 768.911032zM1022.177936 597.637011l0-167.629893c-32.797153-7.288256-69.238434-14.576512-109.323843-18.220641-10.932384-40.085409-25.508897-76.52669-43.729537-109.323843 25.508897-32.797153 47.373665-61.950178 65.594306-91.103203l-120.256228-120.256228c-29.153025 18.220641-58.30605 40.085409-91.103203 61.950178-32.797153-18.220641-69.238434-36.441281-109.323843-43.729537-3.644128-40.085409-10.932384-76.52669-18.220641-109.323843l-167.629893 0c-7.288256 32.797153-14.576512 69.238434-18.220641 109.323843-40.085409 10.932384-76.52669 25.508897-109.323843 43.729537C267.843416 134.83274 238.690391 112.967972 209.537367 94.747331L92.925267 211.359431C111.145907 240.512456 133.010676 269.66548 154.875445 302.462633c-18.220641 32.797153-36.441281 69.238434-43.729537 109.323843-40.085409 3.644128-76.52669 10.932384-109.323843 18.220641l0 167.629893c32.797153 7.288256 69.238434 14.576512 109.323843 18.220641 10.932384 40.085409 25.508897 76.52669 43.729537 109.323843-25.508897 32.797153-47.373665 61.950178-61.950178 91.103203l120.256228 120.256228c29.153025-18.220641 58.30605-40.085409 91.103203-65.594306 32.797153 18.220641 69.238434 36.441281 109.323843 43.729537 3.644128 40.085409 10.932384 76.52669 18.220641 109.323843l167.629893 0c7.288256-32.797153 14.576512-69.238434 18.220641-109.323843 40.085409-10.932384 76.52669-25.508897 109.323843-43.729537 32.797153 25.508897 61.950178 47.373665 91.103203 65.594306l120.256228-120.256228c-18.220641-29.153025-40.085409-58.30605-65.594306-91.103203 18.220641-32.797153 36.441281-69.238434 43.729537-109.323843C952.939502 612.213523 989.380783 604.925267 1022.177936 597.637011z" p-id="5094"></path></svg>