<?xml version="1.0" standalone="no"?><!DOCTYPE svg PUBLIC "-//W3C//DTD SVG 1.1//EN" "http://www.w3.org/Graphics/SVG/1.1/DTD/svg11.dtd"><svg t="1540970591664" class="icon" style="" viewBox="0 0 1024 1024" version="1.1" xmlns="http://www.w3.org/2000/svg" p-id="3605" xmlns:xlink="http://www.w3.org/1999/xlink" width="128" height="128"><defs><style type="text/css"></style></defs><path d="M403.821714 711.582476l1.097143 23.747048-14.019048 23.137524 42.983619 187.782095-60.732952 29.500952-60.732952-29.500952 42.983619-187.782095-14.019048-23.137524 1.072762-23.747048C369.225143 710.070857 377.07581 710.070857 403.821714 711.582476L403.821714 711.582476 403.821714 711.582476zM403.821714 711.582476" p-id="3606"></path><path d="M361.325714 0l595.114667 0c18.578286 0 35.474286 7.606857 47.713524 19.846095C1016.393143 32.036571 1024 48.956952 1024 67.584l0 371.614476c0 18.529524-7.606857 35.449905-19.846095 47.713524l-0.048762 0.024381 0 0.048762c-12.288 12.190476-29.159619 19.797333-47.664762 19.797333l-263.070476 0-93.086476 73.142857-33.158095 26.014476 6.363429-41.642667 7.728762-50.858667 33.03619 4.973714-1.389714 9.142857 152.600381-119.881143 20.675048 26.233905-50.176 39.448381 220.452571 0c9.411048 0 17.92-3.82781 24.088381-9.99619l0.048762-0.048762c6.144-6.119619 9.97181-14.701714 9.97181-24.112762L990.524952 67.584c0-9.362286-3.82781-17.92-10.020571-24.112762C974.262857 37.302857 965.729524 33.426286 956.416 33.426286L361.325714 33.426286c-9.411048 0-17.993143 3.82781-24.161524 9.99619-6.192762 6.241524-9.99619 14.774857-9.99619 24.185905l0 73.069714-33.426286 0L293.741714 67.584c0-18.578286 7.582476-35.449905 19.797333-47.689143l0.097524-0.048762C325.90019 7.606857 342.747429 0 361.325714 0L361.325714 0 361.325714 0zM361.325714 0" p-id="3607"></path><path d="M567.100952 398.214095c11.459048-152.624762-10.044952-240.518095-193.024-216.015238-62.098286 8.289524-129.536-9.947429-168.033524 18.236952-48.37181 45.641143-51.809524 114.127238-38.66819 194.462476-2.901333 1.560381-5.851429 3.34019-8.728381 5.339429l-8.630857 5.827048-0.146286 10.337524c-0.463238 26.770286 2.876952 49.347048 10.093714 66.657524 6.558476 15.750095 16.237714 27.452952 29.159619 34.523429 15.384381 52.443429 37.497905 91.794286 65.145905 120.124952 30.134857 30.915048 66.413714 48.444952 107.446857 55.344762l3.681524 0.585143 3.657143-0.75581c45.421714-9.557333 81.724952-27.89181 110.640762-58.489905 26.794667-28.306286 46.811429-66.584381 61.488762-117.686857 12.458667-7.241143 21.796571-19.065905 28.086857-34.645333 6.92419-17.212952 10.093714-39.399619 9.654857-65.633524l-0.146286-10.337524-8.630857-5.827048C569.148952 399.481905 568.149333 398.823619 567.100952 398.214095L567.100952 398.214095 567.100952 398.214095zM567.100952 398.214095" p-id="3608"></path><path d="M122.392381 692.857905l-8.143238-0.048762L108.007619 698.221714c-43.812571 38.253714-69.510095 93.96419-84.431238 150.820571-14.409143 55.174095-18.748952 111.469714-19.577905 152.990476L3.559619 1024l21.967238 0 680.984381 0 19.285333 0 2.121143-19.285333c5.412571-49.980952-3.145143-113.298286-21.796571-171.349333-17.749333-55.442286-45.031619-106.886095-78.506667-138.532571l-6.582857-6.241524-8.874667 0.316952-104.545524 3.584 0 43.081143 96.646095-3.31581c25.136762 26.89219 46.275048 68.656762 60.879238 114.273524 14.506667 45.202286 22.308571 93.525333 21.187048 134.290286L47.786667 980.821333c1.755429-35.644952 6.41219-78.799238 17.505524-120.929524 12.239238-46.811429 32.402286-92.233143 65.243429-123.879619l87.625143 0.78019 0-43.081143L122.392381 692.857905 122.392381 692.857905zM122.392381 692.857905" p-id="3609"></path><path d="M785.481143 281.429333l0 25.429333 139.361524 0 0-25.429333L785.481143 281.429333zM785.481143 281.429333" p-id="3610"></path><path d="M638.415238 281.429333l0 25.429333 124.976762 0 0-25.429333L638.415238 281.429333zM638.415238 281.429333" p-id="3611"></path><path d="M854.625524 195.31581l0 25.429333 70.217143 0L924.842667 195.31581 854.625524 195.31581zM854.625524 195.31581" p-id="3612"></path><path d="M798.159238 195.31581l0 25.429333 28.257524 0L826.416762 195.31581 798.159238 195.31581zM798.159238 195.31581" p-id="3613"></path><path d="M716.336762 195.31581l0 25.429333 56.441905 0L772.778667 195.31581 716.336762 195.31581zM716.336762 195.31581" p-id="3614"></path><path d="M638.415238 195.31581l0 25.429333 56.368762 0L694.784 195.31581 638.415238 195.31581zM638.415238 195.31581" p-id="3615"></path><path d="M638.415238 115.687619l0 25.429333 286.427429 0L924.842667 115.687619 638.415238 115.687619zM638.415238 115.687619" p-id="3616"></path><path d="M190.317714 435.2c0.877714 12.995048 3.072 23.917714 6.656 32.451048 3.559619 8.679619 8.46019 14.262857 14.701714 16.188952l10.605714 3.267048 2.901333 10.678857c13.628952 50.249143 33.231238 86.79619 57.807238 112.006095 22.869333 23.430095 50.44419 37.13219 81.700571 43.081143 35.523048-8.070095 63.75619-22.576762 86.016-46.08 23.576381-24.892952 41.155048-60.440381 54.296381-109.446095l2.755048-10.191238 9.99619-3.535238c6.095238-2.121143 10.898286-7.850667 14.433524-16.530286 3.364571-8.484571 5.534476-19.163429 6.41219-31.817143-5.851429 0.048762-11.751619 0.195048-18.529524 1.024l-2.681905-9.069714-5.729524 0.341333-3.291429-17.408c-2.56-13.58019-6.509714-26.160762-11.580952-37.717333-15.311238 6.460952-32.451048-5.436952-47.932952-14.360381l-7.826286 24.600381-12.678095-1.657905 1.682286-15.018667-13.336381 21.430857-11.873524-2.364952 11.678476-31.768381 0 0c-65.340952 57.977905-141.750857 54.272-184.368762 21.845333-1.365333 3.291429-2.633143 6.656-3.803429 10.118095-2.950095 11.751619-6.217143 27.038476-9.167238 38.716952l-0.78019 4.266667-0.292571-0.024381c-0.633905 2.340571-1.219048 4.412952-1.828571 6.217143C210.895238 430.933333 200.021333 433.737143 190.317714 435.2L190.317714 435.2 190.317714 435.2zM190.317714 435.2" p-id="3617"></path></svg>